#!OML:ASF H:\ManfredETheater\Project 1\Capture day 1\Session 1\subject.ASF
:FULLY-SPECIFIED
:DEGREES
190
root 1.39651 15.9927 -3.64069 -6.05697 3.96557 0.127765
lowerback 4.46497 -0.634516 -3.26229
upperback 0.0954509 -0.974158 1.61156
thorax -2.32368 -0.44192 3.55673
lowerneck -18.907 -1.82282 -2.45434
upperneck 23.3873 -1.8552 0.176389
head 10.6804 -1.04816 0.202754
rclavicle 7.00716e-015 -9.14409e-015
rhumerus 25.592 4.05169 -43.446
rradius 69.2747
rwrist 9.58616
rhand 6.44881 -21.5516
rfingers 7.12502
rthumb 31.7509 -48.8072
lclavicle 7.00716e-015 -9.14409e-015
lhumerus 24.9315 -2.19179 60.0803
lradius 74.6592
lwrist -23.4014
lhand 14.2417 16.2663
lfingers 7.12502
lthumb 39.1374 41.7469
rfemur -15.422 -15.9992 7.70258
rtibia 64.4488
rfoot -34.0772 0.975181
rtoes -13.0072
lfemur -17.4692 5.20822 -10.5469
ltibia 64.424
lfoot -35.3626 -3.26325
ltoes -13.0632
191
root 1.39741 15.9924 -3.64062 -6.05843 3.96721 0.112401
lowerback 4.47445 -0.635613 -3.24465
upperback 0.0967275 -0.974937 1.61302
thorax -2.32787 -0.442428 3.54848
lowerneck -18.915 -1.8273 -2.47255
upperneck 23.3958 -1.86165 0.198673
head 10.6856 -1.04998 0.212751
rclavicle -8.77137e-015 1.98785e-014
rhumerus 25.5883 4.06074 -43.4385
rradius 69.2731
rwrist 9.60769
rhand 6.47188 -21.5467
rfingers 7.12502
rthumb 31.7728 -48.798
lclavicle -8.77137e-015 1.98785e-014
lhumerus 24.9289 -2.20734 60.0636
lradius 74.664
lwrist -23.3648
lhand 14.1955 16.2632
lfingers 7.12502
lthumb 39.0939 41.7563
rfemur -15.4174 -15.9884 7.71986
rtibia 64.4464
rfoot -34.0812 0.952629
rtoes -13.0746
lfemur -17.4747 5.21289 -10.5341
ltibia 64.4328
lfoot -35.3649 -3.22369
ltoes -13.1771
192
root 1.39807 15.9923 -3.63906 -6.05849 3.95697 0.0992172
lowerback 4.48303 -0.631536 -3.2339
upperback 0.0845621 -0.969147 1.61722
thorax -2.34583 -0.439067 3.54672
lowerneck -18.8903 -1.8271 -2.48717
upperneck 23.3931 -1.86506 0.226442
head 10.6804 -1.04943 0.22488
rclavicle -1.26725e-015 2.78299e-015
rhumerus 25.5707 4.08291 -43.4297
rradius 69.2743
rwrist 9.60971
rhand 6.43718 -21.5451
rfingers 7.12502
rthumb 31.7398 -48.8029
lclavicle -1.26725e-015 2.78299e-015
lhumerus 24.9121 -2.22683 60.0655
lradius 74.6605
lwrist -23.3743
lhand 14.2359 16.2657
lfingers 7.12502
lthumb 39.1319 41.7478
rfemur -15.4102 -15.9763 7.73368
rtibia 64.4449
rfoot -34.08 0.938325
rtoes -13.1383
lfemur -17.4698 5.21484 -10.5196
ltibia 64.4395
lfoot -35.3686 -3.24722
ltoes -13.1077
193
root 1.3993 15.992 -3.63927 -6.04188 3.97429 0.102895
lowerback 4.47483 -0.640211 -3.23487
upperback 0.091372 -0.980513 1.61679
thorax -2.33322 -0.445105 3.54728
lowerneck -18.9363 -1.82942 -2.46128
upperneck 23.4004 -1.86476 0.188361
head 10.6912 -1.05165 0.20651
rclavicle -3.00662e-015 4.37326e-015
rhumerus 25.587 4.07598 -43.4276
rradius 69.2699
rwrist 9.62203
rhand 6.43888 -21.5231
rfingers 7.12502
rthumb 31.7414 -48.7806
lclavicle -3.00662e-015 4.37326e-015
lhumerus 24.9309 -2.21662 60.0521
lradius 74.6507
lwrist -23.3686
lhand 14.2157 16.2533
lfingers 7.12502
lthumb 39.1129 41.7409
rfemur -15.4304 -15.9864 7.72976
rtibia 64.4489
rfoot -34.0783 0.917765
rtoes -13.1475
lfemur -17.4986 5.19741 -10.5348
ltibia 64.4462
lfoot -35.3674 -3.21859
ltoes -13.1632
194
root 1.39957 15.9917 -3.63773 -6.05558 3.98258 0.0989842
lowerback 4.48609 -0.642042 -3.23741
upperback 0.0875122 -0.983407 1.61756
thorax -2.34322 -0.446248 3.54994
lowerneck -18.9048 -1.83266 -2.47135
upperneck 23.394 -1.86932 0.196406
head 10.6831 -1.05369 0.210698
rclavicle -7.95139e-016 1.98785e-015
rhumerus 25.5615 4.09458 -43.416
rradius 69.2798
rwrist 9.63372
rhand 6.42738 -21.5393
rfingers 7.12502
rthumb 31.7305 -48.7989
lclavicle -7.95139e-016 1.98785e-015
lhumerus 24.9146 -2.23213 60.0509
lradius 74.6557
lwrist -23.3708
lhand 14.2639 16.2548
lfingers 7.12502
lthumb 39.1583 41.7293
rfemur -15.4063 -15.9834 7.72577
rtibia 64.4508
rfoot -34.0814 0.929442
rtoes -13.1111
lfemur -17.4766 5.18165 -10.532
ltibia 64.4491
lfoot -35.3839 -3.21957
ltoes -13.153
195
root 1.40114 15.9919 -3.6376 -6.02837 3.97975 0.118234
lowerback 4.46371 -0.640462 -3.24854
upperback 0.0875125 -0.981494 1.60709
thorax -2.33083 -0.445481 3.54485
lowerneck -18.9231 -1.83247 -2.46043
upperneck 23.3914 -1.87356 0.202603
head 10.6856 -1.05381 0.210336
rclavicle 1.19271e-015 -6.36111e-015
rhumerus 25.5744 4.08592 -43.4246
rradius 69.2757
rwrist 9.62084
rhand 6.39793 -21.5496
rfingers 7.12502
rthumb 31.7024 -48.8148
lclavicle 1.19271e-015 -6.36111e-015
lhumerus 24.9232 -2.23396 60.0422
lradius 74.6597
lwrist -23.3769
lhand 14.252 16.249
lfingers 7.12502
lthumb 39.1471 41.7268
rfemur -15.443 -15.9803 7.70676
rtibia 64.4585
rfoot -34.0689 0.929028
rtoes -13.1039
lfemur -17.5085 5.18066 -10.5657
ltibia 64.4564
lfoot -35.3789 -3.19998
ltoes -13.1568
196
root 1.40104 15.9909 -3.63701 -6.04922 3.9665 0.0555029
lowerback 4.49033 -0.638663 -3.19816
upperback 0.0860206 -0.976744 1.62755
thorax -2.34817 -0.443182 3.53781
lowerneck -18.8906 -1.83658 -2.4678
upperneck 23.3746 -1.87752 0.200729
head 10.6733 -1.05653 0.210642
rclavicle -1.2921e-015 7.95139e-016
rhumerus 25.564 4.1032 -43.4175
rradius 69.2763
rwrist 9.6097
rhand 6.35783 -21.55
rfingers 7.12502
rthumb 31.6642 -48.8227
lclavicle -1.2921e-015 7.95139e-016
lhumerus 24.9337 -2.24328 60.0387
lradius 74.6488
lwrist -23.3498
lhand 14.2339 16.2659
lfingers 7.12502
lthumb 39.13 41.7486
rfemur -15.4277 -15.9527 7.78399
rtibia 64.4603
rfoot -34.071 0.911442
rtoes -13.0966
lfemur -17.4926 5.19772 -10.4832
ltibia 64.4647
lfoot -35.3935 -3.19996
ltoes -13.2215
197
root 1.40235 15.9906 -3.63643 -6.04728 3.96583 0.077881
lowerback 4.48452 -0.638874 -3.21434
upperback 0.0923404 -0.977844 1.62047
thorax -2.33816 -0.443893 3.5395
lowerneck -18.892 -1.8396 -2.4582
upperneck 23.3642 -1.87998 0.183166
head 10.6695 -1.05895 0.202398
rclavicle -1.38404e-014 8.34896e-015
rhumerus 25.576 4.09831 -43.4152
rradius 69.278
rwrist 9.62066
rhand 6.37673 -21.5358
rfingers 7.12502
rthumb 31.6822 -48.8049
lclavicle -1.38404e-014 8.34896e-015
lhumerus 24.9456 -2.23261 60.0459
lradius 74.6304
lwrist -23.397
lhand 14.2344 16.2432
lfingers 7.12502
lthumb 39.1305 41.7257
rfemur -15.4286 -15.9578 7.74895
rtibia 64.4667
rfoot -34.0674 0.909902
rtoes -13.1615
lfemur -17.4908 5.19317 -10.516
ltibia 64.4696
lfoot -35.3907 -3.20815
ltoes -13.1676
198
root 1.40329 15.9906 -3.63537 -6.04766 3.98012 0.112053
lowerback 4.49524 -0.640477 -3.25411
upperback 0.0909443 -0.982658 1.60807
thorax -2.34477 -0.445756 3.54962
lowerneck -18.8911 -1.84933 -2.46215
upperneck 23.3582 -1.89561 0.194625
head 10.6675 -1.065 0.204902
rclavicle -4.89507e-015 -2.62396e-014
rhumerus 25.5742 4.10449 -43.4089
rradius 69.2889
rwrist 9.59018
rhand 6.40067 -21.5705
rfingers 7.12502
rthumb 31.705 -48.8352
lclavicle -4.89507e-015 -2.62396e-014
lhumerus 24.939 -2.23754 60.0342
lradius 74.6423
lwrist -23.3973
lhand 14.2409 16.25
lfingers 7.12502
lthumb 39.1367 41.7308
rfemur -15.4153 -15.9623 7.69939
rtibia 64.4693
rfoot -34.0719 0.929699
rtoes -13.1437
lfemur -17.4804 5.18275 -10.5606
ltibia 64.4694
lfoot -35.4053 -3.20834
ltoes -13.1741
199
root 1.40394 15.9897 -3.6346 -6.056 3.9746 0.12284
lowerback 4.50916 -0.635171 -3.26825
upperback 0.0951653 -0.976727 1.60659
thorax -2.34854 -0.442631 3.55591
lowerneck -18.9071 -1.85533 -2.4964
upperneck 23.3684 -1.90164 0.226973
head 10.6752 -1.0668 0.221172
rclavicle 4.91992e-015 5.96354e-015
rhumerus 25.5726 4.10634 -43.3928
rradius 69.2954
rwrist 9.55859
rhand 6.40787 -21.5813
rfingers 7.12502
rthumb 31.7119 -48.8447
lclavicle 4.91992e-015 5.96354e-015
lhumerus 24.9586 -2.23918 60.0329
lradius 74.6416
lwrist -23.3899
lhand 14.2533 16.2617
lfingers 7.12502
lthumb 39.1483 41.7391
rfemur -15.4065 -15.9542 7.68198
rtibia 64.4755
rfoot -34.0766 0.921371
rtoes -13.1555
lfemur -17.468 5.18283 -10.5744
ltibia 64.474
lfoot -35.3968 -3.21725
ltoes -13.097
200
root 1.40437 15.9897 -3.6347 -6.06275 3.95953 0.0809075
lowerback 4.51759 -0.633697 -3.23571
upperback 0.108391 -0.972856 1.62207
thorax -2.34021 -0.441366 3.55334
lowerneck -18.9221 -1.84515 -2.48789
upperneck 23.3488 -1.89036 0.230565
head 10.6706 -1.06031 0.222646
rclavicle 1.02871e-014 -1.19271e-014
rhumerus 25.6071 4.09257 -43.4026
rradius 69.2845
rwrist 9.56493
rhand 6.40764 -21.5778
rfingers 7.12502
rthumb 31.7117 -48.8411
lclavicle 1.02871e-014 -1.19271e-014
lhumerus 24.9859 -2.22016 60.0278
lradius 74.6391
lwrist -23.3926
lhand 14.264 16.2716
lfingers 7.12502
lthumb 39.1584 41.7461
rfemur -15.4063 -15.9316 7.73538
rtibia 64.4734
rfoot -34.0767 0.911284
rtoes -13.1268
lfemur -17.4657 5.20345 -10.5225
ltibia 64.4797
lfoot -35.4 -3.20684
ltoes -13.1561
